<svg viewBox="0 0 1500 894" fill="none">
  <path
    fill-rule="evenodd"
    clip-rule="evenodd"
    d="M645.77 456.833C739.43 456.833 797.56 414.377 797.56 345.793C797.56 288.966 764.9 257.613 685.87 247.162L587.23 236.059C559.15 232.138 547.39 224.953 547.39 209.277C547.39 190.336 566.33 181.844 609.44 181.844C668.88 181.844 710.03 195.561 743.35 222.342L796.25 169.434C759.67 131.55 696.32 110.648 617.94 110.648C507.55 110.648 446.15 149.838 446.15 215.809C446.15 273.289 484.03 305.295 562.41 315.745L651.25 326.196C686.52 330.769 696.97 337.302 696.97 354.283C696.97 373.88 677.37 384.331 631.65 384.331C563.72 384.331 518 366.041 487.3 332.076L427.21 381.717C467.05 431.36 534.98 456.833 625.77 456.833Z"
    fill="currentColor"
  />

</svg>
