<svg viewBox="0 0 1500 894" fill="none">
  <path
    fill-rule="evenodd"
    clip-rule="evenodd"
    d="M645.77 456.833C739.43 456.833 797.56 414.377 797.56 345.793C797.56 288.966 764.9 257.613 685.87 247.162L587.23 236.059C559.15 232.138 547.39 224.953 547.39 209.277C547.39 190.336 566.33 181.844 609.44 181.844C668.88 181.844 710.03 195.561 743.35 222.342L796.25 169.434C759.67 131.55 696.32 110.648 617.94 110.648C507.55 110.648 446.15 149.838 446.15 215.809C446.15 273.289 484.03 305.295 562.41 315.745L651.25 326.196C686.52 330.769 696.97 337.302 696.97 354.283C696.97 373.88 677.37 384.331 631.65 384.331C563.72 384.331 518 366.041 487.3 332.076L427.21 381.717C467.05 431.36 534.98 456.833 625.77 456.833Z"
    fill="currentColor"
  />
  <path
    fill-rule="evenodd"
    clip-rule="evenodd"
    d="M464.867 627.566C438.094 650.46 384.655 666.073 323.101 666.073C247.551 666.073 184.229 642.553 167.426 610.921C161.419 629.05 160.072 649.798 160.072 663.052C160.072 663.052 156.114 728.134 201.38 773.401C201.38 749.896 220.435 730.842 243.939 730.842C284.226 730.842 284.181 765.99 284.144 794.506C284.143 795.36 284.142 796.209 284.142 797.051C284.142 840.333 310.595 877.436 348.215 893.075C342.596 881.518 339.444 868.54 339.444 854.825C339.444 813.545 363.679 798.175 391.845 780.311C414.255 766.098 439.155 750.307 456.315 718.629C465.268 702.101 470.352 683.17 470.352 663.052C470.352 650.68 468.43 638.757 464.867 627.566Z"
    fill="currentColor"
  />
</svg>
