<svg viewBox="0 0 1847 457" fill="none">
  <path
    d="M134.148 456.833C202.08 456.833 253.03 432.665 273.93 391.516C273.93 411.111 275.23 431.36 278.5 447.036H390.19C384.97 424.173 382.36 392.82 382.36 351.671V251.081C382.36 155.717 326.18 110.648 201.43 110.648C92.3441 110.648 19.188 155.717 10.697 229.527H126.963C130.882 197.521 157.66 179.885 201.43 179.885C244.53 179.885 268.7 197.521 268.7 234.1V243.896L150.48 254.347C92.997 260.227 60.338 270.023 37.477 285.7C13.31 302.028 0.898987 326.851 0.898987 357.549C0.898987 418.948 51.847 456.833 134.148 456.833ZM177.26 388.902C139.37 388.902 116.512 373.88 116.512 349.712C116.512 324.892 135.45 311.827 183.14 305.949L270.66 296.805V316.4C270.66 360.163 232.78 388.902 177.26 388.902Z"
    fill="currentColor"
  />
</svg>
